<?xml version="1.0"?>
<svg xmlns="http://www.w3.org/2000/svg" xmlns:xlink="http://www.w3.org/1999/xlink" xmlns:svgjs="http://svgjs.com/svgjs" version="1.1" width="512" height="512" x="0" y="0" viewBox="0 0 64 64" style="enable-background:new 0 0 512 512" xml:space="preserve" class=""><g><path xmlns="http://www.w3.org/2000/svg" d="m60 48h-34.413a2 2 0 0 1 -1.948-1.546l-5.918-25.363a4 4 0 0 0 -3.895-3.091h-9.826a2 2 0 0 0 0 4h8.413a2 2 0 0 1 1.948 1.546l5.557 23.817a6 6 0 0 0 5.843 4.637h34.239a2 2 0 0 0 0-4z" fill="#000000" data-original="#000000" style="" class=""/><path xmlns="http://www.w3.org/2000/svg" d="m49.9 30h-6.9v6h6.082z" fill="#000000" data-original="#000000" style="" class=""/><path xmlns="http://www.w3.org/2000/svg" d="m43 28h7.173l.681-5h-7.854z" fill="#000000" data-original="#000000" style="" class=""/><path xmlns="http://www.w3.org/2000/svg" d="m41 28v-5h-7.854l.681 5z" fill="#000000" data-original="#000000" style="" class=""/><path xmlns="http://www.w3.org/2000/svg" d="m60.747 23h-7.874l-.682 5h7.42z" fill="#000000" data-original="#000000" style="" class=""/><path xmlns="http://www.w3.org/2000/svg" d="m50.146 43h6.056l1.136-5h-6.511z" fill="#000000" data-original="#000000" style="" class=""/><path xmlns="http://www.w3.org/2000/svg" d="m41 30h-6.9l.818 6h6.082z" fill="#000000" data-original="#000000" style="" class=""/><path xmlns="http://www.w3.org/2000/svg" d="m59.156 30h-7.238l-.818 6h6.693z" fill="#000000" data-original="#000000" style="" class=""/><path xmlns="http://www.w3.org/2000/svg" d="m43 43h5.127l.682-5h-5.809z" fill="#000000" data-original="#000000" style="" class=""/><path xmlns="http://www.w3.org/2000/svg" d="m31.809 28-.682-5h-7.874l1.136 5z" fill="#000000" data-original="#000000" style="" class=""/><path xmlns="http://www.w3.org/2000/svg" d="m26.207 36h6.693l-.818-6h-7.238z" fill="#000000" data-original="#000000" style="" class=""/><path xmlns="http://www.w3.org/2000/svg" d="m41 43v-5h-5.809l.682 5z" fill="#000000" data-original="#000000" style="" class=""/><path xmlns="http://www.w3.org/2000/svg" d="m26.662 38 1.136 5h6.056l-.681-5z" fill="#000000" data-original="#000000" style="" class=""/><path xmlns="http://www.w3.org/2000/svg" d="m27 57a5 5 0 1 0 5-5 5 5 0 0 0 -5 5zm5-2a2 2 0 1 1 -2 2 2 2 0 0 1 2-2z" fill="#000000" data-original="#000000" style="" class=""/><path xmlns="http://www.w3.org/2000/svg" d="m47 57a5 5 0 1 0 5-5 5 5 0 0 0 -5 5zm5-2a2 2 0 1 1 -2 2 2 2 0 0 1 2-2z" fill="#000000" data-original="#000000" style="" class=""/><path xmlns="http://www.w3.org/2000/svg" d="m42 18a8 8 0 1 0 -8-8 8 8 0 0 0 8 8zm-5-9h4v-4h2v4h4v2h-4v4h-2v-4h-4z" fill="#000000" data-original="#000000" style="" class=""/></g></svg>
